<?xml version="1.0" encoding="UTF-8" standalone="no"?>
<svg
   xmlns:dc="http://purl.org/dc/elements/1.1/"
   xmlns:cc="http://creativecommons.org/ns#"
   xmlns:rdf="http://www.w3.org/1999/02/22-rdf-syntax-ns#"
   xmlns:svg="http://www.w3.org/2000/svg"
   xmlns="http://www.w3.org/2000/svg"
   viewBox="0 0 64.305021 50.349308"
   height="50.349308"
   width="64.305023"
   id="svg869"
   version="1.1">
  <metadata
     id="metadata875">
    <rdf:RDF>
      <cc:Work
         rdf:about="">
        <dc:format>image/svg+xml</dc:format>
        <dc:type
           rdf:resource="http://purl.org/dc/dcmitype/StillImage" />
        <dc:title></dc:title>
      </cc:Work>
    </rdf:RDF>
  </metadata>
  <defs
     id="defs873" />
  <path
     id="path879"
     d="M 15.471229,48.760833 C 14.150541,47.871258 12.32655,45.796797 11.417916,44.15092 10.386919,42.283395 8.9133378,40.802209 7.4981238,40.210894 3.2716718,38.444971 0.01122988,32.973983 1.5146458e-4,27.629386 -0.00366473,25.780183 0.04964835,25.755776 1.9396081,26.741667 c 1.0688692,0.55758 2.6589219,1.015736 3.5334505,1.018131 1.6257071,0.0045 2.1371365,-0.9875 0.9025356,-1.750522 C 5.365441,25.384965 2.822971,16.701172 2.822971,13.875302 v -2.432927 l 3.1879153,2.193345 c 1.7533536,1.206341 4.2564417,2.639801 5.5624207,3.185471 l 2.374504,0.992135 0.33911,-5.284038 c 0.384939,-5.998173 0.93604,-7.0258726 2.510948,-4.6824578 0.604985,0.9002032 2.425231,2.5485308 4.044988,3.6629538 l 2.945014,2.026227 1.604748,-3.309611 C 26.27523,8.4061166 28.137997,5.3605113 29.532098,3.458394 L 32.066831,0 l 2.34572,2.751705 c 1.290148,1.513439 3.265563,4.5690171 4.389815,6.7901807 l 2.04409,4.0384763 3.219315,-2.458125 c 1.770622,-1.3519729 3.52683,-3.0076367 3.90268,-3.6792494 1.134989,-2.0281097 1.812583,-0.3583327 2.090872,5.1525654 l 0.264091,5.2303 2.389489,-0.998394 c 1.314227,-0.549112 3.873646,-2.019519 5.687608,-3.267561 l 3.298113,-2.26916 -0.489712,4.166947 c -0.269354,2.291825 -1.272974,5.877766 -2.230261,7.968763 -0.957292,2.090992 -1.740529,3.922388 -1.740529,4.069756 0,0.659375 3.362254,0.164224 5.1235,-0.754537 l 1.943402,-1.01377 -0.01572,2.608179 c -0.02964,5.00789 -3.6052,10.443619 -7.952856,12.090816 -1.078824,0.408717 -2.159392,1.304452 -2.401247,1.990472 -0.813422,2.307243 -3.820919,5.833844 -5.88569,6.901576 -2.411966,1.247279 -7.920711,1.393122 -10.115356,0.267782 -0.84881,-0.435298 -2.547611,-1.741275 -3.774947,-2.902151 -2.207049,-2.087538 -2.240243,-2.09438 -3.027061,-0.624196 -2.201515,4.113566 -11.247281,5.673357 -15.660943,2.700458 z M 27.411241,45.79906 c 2.105105,-1.771331 4.214872,-5.721204 3.459414,-6.476665 -0.225591,-0.225621 -1.937951,0.111967 -3.805246,0.75015 -1.867294,0.638169 -5.700656,1.356617 -8.518583,1.596556 -2.817927,0.239957 -5.116432,0.628091 -5.107789,0.862568 0.02922,0.792649 2.448533,3.417257 3.871081,4.199562 2.665978,1.466106 7.815718,0.99087 10.101123,-0.932171 z m 19.947357,0.685065 c 1.804132,-0.932952 3.519305,-2.973224 3.519305,-4.18637 0,-0.219875 -1.351549,-0.404485 -3.003433,-0.410231 -2.794856,-0.0097 -9.883764,-1.397906 -12.720425,-2.490976 -1.637769,-0.631098 -1.681445,1.872399 -0.07542,4.323489 2.392033,3.650705 8.08672,4.932523 12.27998,2.764105 z M 26.002774,37.618213 C 28.277483,36.808518 28.303723,36.75314 27.06281,35.380966 24.283632,32.307815 20.771808,31.242061 11.965398,30.799282 2.7700135,30.33697 2.658114,30.389111 4.6365619,34.21499 c 1.8414159,3.560904 5.9081411,4.990687 13.0269021,4.580009 3.303776,-0.190599 7.056467,-0.720149 8.33931,-1.176786 z m 30.175304,-0.159326 c 1.605707,-0.902653 3.361075,-2.652897 4.063711,-4.051845 l 1.236942,-2.462763 -5.085298,-0.210439 c -7.223275,-0.298873 -13.652275,0.85529 -16.96113,3.044993 -1.528574,1.011563 -2.655583,2.218653 -2.504466,2.682422 0.361737,1.110152 6.857626,2.459183 12.183339,2.530173 3.163018,0.04234 4.958224,-0.347142 7.066902,-1.53256 z M 35.507391,33.511325 c 4.043275,-4.168025 3.671503,-4.68714 -3.356779,-4.68714 -4.578466,0 -6.006866,0.227376 -6.006866,0.956222 0,1.100624 4.947909,6.405027 6.006866,6.439657 0.388679,0.01267 1.89923,-1.206219 3.356779,-2.708739 z M 22.723396,26.028796 c -0.226402,-2.846593 -0.05141,-3.270422 1.823808,-4.416813 1.14083,-0.697446 1.94289,-1.65769 1.782354,-2.133878 -0.160537,-0.476163 -2.335088,-2.294099 -4.832334,-4.0398 l -4.540451,-3.174003 0.004,3.686459 c 0.0048,4.48544 1.102525,8.682493 2.951142,11.28337 2.080432,2.92703 3.105255,2.487675 2.811538,-1.205335 z m 22.444022,-0.690013 c 1.265407,-2.45893 1.873888,-4.934283 2.07117,-8.425697 l 0.279334,-4.943852 -3.796867,2.701777 c -2.088277,1.485985 -4.362034,3.336687 -5.05279,4.112684 -1.218069,1.368376 -1.18882,1.451704 0.970471,2.764849 2.079869,1.264839 2.202848,1.562791 1.868699,4.527341 -0.487051,4.32138 1.235289,3.974498 3.659964,-0.737102 z M 16.694707,27.58748 c -0.208916,-0.485854 -0.77839,-2.234913 -1.265498,-3.886797 -0.487106,-1.65189 -1.217205,-3.013382 -1.62244,-3.025535 -0.405235,-0.01211 -2.247341,-0.762374 -4.0935692,-1.66715 C 5.95444,17.165945 5.62151,17.570369 7.3975241,21.820976 c 2.1168829,5.066414 3.7454909,6.649861 6.8395019,6.649861 2.001482,0 2.725612,-0.260281 2.457681,-0.883357 z m 37.193596,-1.060038 c 1.891829,-1.975109 4.056503,-6.362269 4.056503,-8.221337 0,-0.80173 -0.892625,-0.628642 -4.12454,0.799774 -3.680536,1.626698 -4.216541,2.133782 -4.979219,4.710586 -0.470054,1.588207 -1.025613,3.285161 -1.234528,3.771015 -0.261368,0.607852 0.368677,0.883357 2.02024,0.883357 1.695889,0 2.946253,-0.570223 4.261544,-1.943395 z M 35.563376,26.395695 c 3.491395,-0.810295 3.964902,-1.34501 2.28125,-2.576133 -1.822679,-1.332772 -9.565349,-1.332772 -11.388027,0 -1.638059,1.197782 -1.17555,1.801019 1.948028,2.540777 3.191697,0.755898 4.036134,0.760065 7.158749,0.03508 z M 36.301343,17.445514 38.332005,14.900516 36.75231,11.52781 C 35.883479,9.6728242 34.473242,7.2779993 33.618449,6.2059918 L 32.064281,4.256875 29.852002,7.706904 c -3.600192,5.614459 -3.758477,6.529137 -1.656563,9.572746 2.527411,3.659748 5.273299,3.715935 8.105904,0.165864 z"
     style="fill:#e99516;stroke-width:0.70669013;fill-opacity:0.96499997" />
</svg>
