<?xml version="1.0" encoding="UTF-8" standalone="no"?>
<svg
   xmlns:dc="http://purl.org/dc/elements/1.1/"
   xmlns:cc="http://creativecommons.org/ns#"
   xmlns:rdf="http://www.w3.org/1999/02/22-rdf-syntax-ns#"
   xmlns:svg="http://www.w3.org/2000/svg"
   xmlns="http://www.w3.org/2000/svg"
   height="26.702177"
   width="23.064407"
   version="1.1"
   id="Layer_1"
   x="0px"
   y="0px"
   viewBox="0 0 23.064407 26.702177"
   xml:space="preserve"><metadata
   id="metadata55"><rdf:RDF><cc:Work
       rdf:about=""><dc:format>image/svg+xml</dc:format><dc:type
         rdf:resource="http://purl.org/dc/dcmitype/StillImage" /><dc:title></dc:title></cc:Work></rdf:RDF></metadata><defs
   id="defs53" />
<path
   style="fill:#e2e5e7;stroke-width:0.05215269"
   d="M 5.0066586,0 C 4.0887713,0 3.3377724,0.75099813 3.3377724,1.6688848 V 25.033293 c 0,0.917887 0.7509989,1.668885 1.6688862,1.668885 H 21.695521 c 0.917887,0 1.668886,-0.750998 1.668886,-1.668885 V 6.6755434 L 16.688862,0 Z"
   id="path2" />
<path
   style="fill:#b0b7bd;stroke-width:0.05215269"
   d="m 18.357748,6.6755434 h 5.006659 L 16.688862,0 v 5.0066586 c 0,0.9178865 0.750999,1.6688848 1.668886,1.6688848 z"
   id="path4" />
<polygon
   transform="matrix(0.05215269,0,0,0.05215269,-1.6688862,0)"
   style="fill:#cad1d8"
   points="384,128 480,128 480,224 "
   id="polygon6" />
<path
   style="fill:#f15642;stroke-width:0.05215269"
   d="m 20.026635,21.695519 c 0,0.458946 -0.3755,0.834447 -0.834443,0.834447 H 0.83444309 C 0.3754994,22.529966 0,22.154465 0,21.695519 V 13.351091 C 0,12.892146 0.3754994,12.516649 0.83444309,12.516649 H 19.192192 c 0.458943,0 0.834443,0.375497 0.834443,0.834442 z"
   id="path8" />
<g
   transform="matrix(0.05215269,0,0,0.05215269,-1.6688862,0)"
   id="g16">
	<path
   style="fill:#ffffff"
   d="m 101.744,303.152 c 0,-4.224 3.328,-8.832 8.688,-8.832 h 29.552 c 16.64,0 31.616,11.136 31.616,32.48 0,20.224 -14.976,31.488 -31.616,31.488 h -21.36 v 16.896 c 0,5.632 -3.584,8.816 -8.192,8.816 -4.224,0 -8.688,-3.184 -8.688,-8.816 z m 16.88,7.28 v 31.872 h 21.36 c 8.576,0 15.36,-7.568 15.36,-15.504 0,-8.944 -6.784,-16.368 -15.36,-16.368 z"
   id="path10" />
	<path
   style="fill:#ffffff"
   d="m 196.656,384 c -4.224,0 -8.832,-2.304 -8.832,-7.92 v -72.672 c 0,-4.592 4.608,-7.936 8.832,-7.936 h 29.296 c 58.464,0 57.184,88.528 1.152,88.528 z m 8.064,-72.912 V 368.4 h 21.232 c 34.544,0 36.08,-57.312 0,-57.312 z"
   id="path12" />
	<path
   style="fill:#ffffff"
   d="m 303.872,312.112 v 20.336 h 32.624 c 4.608,0 9.216,4.608 9.216,9.072 0,4.224 -4.608,7.68 -9.216,7.68 h -32.624 v 26.864 c 0,4.48 -3.184,7.92 -7.664,7.92 -5.632,0 -9.072,-3.44 -9.072,-7.92 v -72.672 c 0,-4.592 3.456,-7.936 9.072,-7.936 h 44.912 c 5.632,0 8.96,3.344 8.96,7.936 0,4.096 -3.328,8.704 -8.96,8.704 h -37.248 z"
   id="path14" />
</g>
<path
   style="fill:#cad1d8;stroke-width:0.05215269"
   d="M 19.192192,22.529966 H 3.3377724 v 0.834442 H 19.192192 c 0.458943,0 0.834443,-0.375501 0.834443,-0.834442 v -0.834447 c 0,0.458946 -0.3755,0.834447 -0.834443,0.834447 z"
   id="path18" />
<g
   transform="translate(-32)"
   id="g20">
</g>
<g
   transform="translate(-32)"
   id="g22">
</g>
<g
   transform="translate(-32)"
   id="g24">
</g>
<g
   transform="translate(-32)"
   id="g26">
</g>
<g
   transform="translate(-32)"
   id="g28">
</g>
<g
   transform="translate(-32)"
   id="g30">
</g>
<g
   transform="translate(-32)"
   id="g32">
</g>
<g
   transform="translate(-32)"
   id="g34">
</g>
<g
   transform="translate(-32)"
   id="g36">
</g>
<g
   transform="translate(-32)"
   id="g38">
</g>
<g
   transform="translate(-32)"
   id="g40">
</g>
<g
   transform="translate(-32)"
   id="g42">
</g>
<g
   transform="translate(-32)"
   id="g44">
</g>
<g
   transform="translate(-32)"
   id="g46">
</g>
<g
   transform="translate(-32)"
   id="g48">
</g>
</svg>